<svg
  xmlns="http://www.w3.org/2000/svg"
  width="48"
  height="48"
  viewBox="0 0 28 28"
  fill="none"
>
  <rect width="28" height="28" rx="6" fill="#7551D6"/>
  <path d="M13.5833 20H12.4167C8.87284 20 6 17.0899 6 13.5C6 9.91015 8.87284 7 12.4167 7C14.3686 7 16.117 7.88287 17.2938 9.2759C16.265 9.88884 15.4061 10.7366 14.7746 11.7606C14.2442 11.0241 13.3856 10.5455 12.4167 10.5455C10.8058 10.5455 9.50001 11.8683 9.50001 13.5C9.50001 15.1318 10.8058 16.4546 12.4167 16.4546H13.5833L13.5834 20H13.5833Z" fill="white"/>
  <path d="M21.1677 12.988C19.5998 12.988 18.251 14.3149 18.251 15.9032V20.0002H14.7511L14.751 15.8638C14.751 12.2739 17.6238 9.36377 21.1677 9.36377V12.988Z" fill="white"/>
</svg>
